<?xml version="1.0" encoding="UTF-8"?><svg id="Layer_2" xmlns="http://www.w3.org/2000/svg" xmlns:xlink="http://www.w3.org/1999/xlink" viewBox="0 0 205.18 204.53"><defs><style>.cls-1{fill:url(#radial-gradient-39);}.cls-2{fill:url(#radial-gradient-46);}.cls-3{fill:url(#radial-gradient-7);}.cls-4{fill:url(#radial-gradient-34);}.cls-5{fill:url(#radial-gradient-10);}.cls-6{fill:url(#radial-gradient-47);}.cls-7{fill:url(#radial-gradient-48);}.cls-8{fill:url(#radial-gradient-31);}.cls-9{fill:url(#radial-gradient-28);}.cls-10{fill:url(#radial-gradient-16);}.cls-11{fill:url(#radial-gradient-50);}.cls-12{fill:url(#radial-gradient-20);}.cls-13{fill:url(#radial-gradient-21);}.cls-14{fill:url(#radial-gradient-8);}.cls-15{fill:url(#radial-gradient-5);}.cls-16{fill:url(#radial-gradient-4);}.cls-17{fill:url(#radial-gradient-40);}.cls-18{fill:url(#radial-gradient-32);}.cls-19{fill:url(#radial-gradient-52);}.cls-20{fill:url(#radial-gradient-25);}.cls-21{fill:url(#radial-gradient-26);}.cls-22{fill:url(#radial-gradient-22);}.cls-23{fill:url(#radial-gradient-6);}.cls-24{fill:url(#radial-gradient-19);}.cls-25{fill:url(#radial-gradient-12);}.cls-26{fill:url(#radial-gradient-49);}.cls-27{fill:url(#radial-gradient-41);}.cls-28{fill:url(#radial-gradient-35);}.cls-29{fill:url(#radial-gradient);}.cls-30{fill:url(#radial-gradient-27);}.cls-31{fill:url(#radial-gradient-13);}.cls-32{fill:url(#radial-gradient-43);}.cls-33{fill:url(#radial-gradient-30);}.cls-34{fill:url(#radial-gradient-51);}.cls-35{fill:url(#radial-gradient-24);}.cls-36{fill:url(#radial-gradient-15);}.cls-37{fill:url(#radial-gradient-2);}.cls-38{fill:url(#radial-gradient-38);}.cls-39{fill:url(#radial-gradient-3);}.cls-40{fill:url(#radial-gradient-42);}.cls-41{fill:url(#radial-gradient-53);}.cls-42{fill:url(#radial-gradient-45);}.cls-43{fill:url(#radial-gradient-17);}.cls-44{fill:url(#radial-gradient-33);}.cls-45{fill:url(#radial-gradient-14);}.cls-46{fill:url(#radial-gradient-37);}.cls-47{fill:url(#radial-gradient-29);}.cls-48{fill:url(#radial-gradient-23);}.cls-49{fill:url(#radial-gradient-36);}.cls-50{fill:url(#radial-gradient-11);}.cls-51{fill:url(#radial-gradient-18);}.cls-52{fill:url(#radial-gradient-9);}.cls-53{fill:url(#radial-gradient-44);}</style><radialGradient id="radial-gradient" cx="-174.24" cy="388.28" fx="-174.24" fy="388.28" r="1" gradientTransform="translate(121865.55 97805.28) rotate(-27) scale(366.52 -366.52)" gradientUnits="userSpaceOnUse"><stop offset="0" stop-color="#ff6f4c"/><stop offset="1" stop-color="#4254ff"/></radialGradient><radialGradient id="radial-gradient-2" cx="-174.24" cy="388.28" fx="-174.24" fy="388.28" r="1" xlink:href="#radial-gradient"/><radialGradient id="radial-gradient-3" cx="-174.24" fx="-174.24" r="1" xlink:href="#radial-gradient"/><radialGradient id="radial-gradient-4" cx="-174.24" fx="-174.24" r="1" xlink:href="#radial-gradient"/><radialGradient id="radial-gradient-5" cx="-174.24" fx="-174.24" xlink:href="#radial-gradient"/><radialGradient id="radial-gradient-6" cx="-174.24" fx="-174.24" r="1" xlink:href="#radial-gradient"/><radialGradient id="radial-gradient-7" cx="-174.24" cy="388.28" fx="-174.24" fy="388.28" r="1" xlink:href="#radial-gradient"/><radialGradient id="radial-gradient-8" cx="-174.24" fx="-174.24" r="1" xlink:href="#radial-gradient"/><radialGradient id="radial-gradient-9" cx="-174.24" fx="-174.24" r="1" xlink:href="#radial-gradient"/><radialGradient id="radial-gradient-10" cx="-174.24" cy="388.28" fx="-174.24" fy="388.28" r="1" xlink:href="#radial-gradient"/><radialGradient id="radial-gradient-11" cx="-174.24" fx="-174.24" r="1" xlink:href="#radial-gradient"/><radialGradient id="radial-gradient-12" cx="-174.24" fx="-174.24" r="1" xlink:href="#radial-gradient"/><radialGradient id="radial-gradient-13" cx="-174.24" fx="-174.24" r="1" xlink:href="#radial-gradient"/><radialGradient id="radial-gradient-14" cx="-174.24" cy="388.28" fx="-174.24" fy="388.28" r="1" xlink:href="#radial-gradient"/><radialGradient id="radial-gradient-15" cx="-174.24" cy="388.28" fx="-174.24" fy="388.28" r="1" xlink:href="#radial-gradient"/><radialGradient id="radial-gradient-16" cx="-174.24" cy="388.28" fx="-174.24" fy="388.28" r="1" xlink:href="#radial-gradient"/><radialGradient id="radial-gradient-17" cx="-174.24" fx="-174.24" r="1" xlink:href="#radial-gradient"/><radialGradient id="radial-gradient-18" cx="-174.24" cy="388.28" fx="-174.24" fy="388.28" r="1" xlink:href="#radial-gradient"/><radialGradient id="radial-gradient-19" cx="-174.24" fx="-174.24" r="1" xlink:href="#radial-gradient"/><radialGradient id="radial-gradient-20" cx="-174.24" cy="388.28" fx="-174.24" fy="388.28" r="1" xlink:href="#radial-gradient"/><radialGradient id="radial-gradient-21" cx="-174.24" cy="388.28" fx="-174.24" fy="388.28" r="1" xlink:href="#radial-gradient"/><radialGradient id="radial-gradient-22" cx="-174.24" cy="388.28" fx="-174.24" fy="388.28" r="1" xlink:href="#radial-gradient"/><radialGradient id="radial-gradient-23" cx="-174.24" cy="388.28" fx="-174.24" fy="388.28" r="1" xlink:href="#radial-gradient"/><radialGradient id="radial-gradient-24" cx="-174.24" cy="388.28" fx="-174.24" fy="388.28" r="1" xlink:href="#radial-gradient"/><radialGradient id="radial-gradient-25" cx="-174.24" cy="388.28" fx="-174.24" fy="388.28" r="1" xlink:href="#radial-gradient"/><radialGradient id="radial-gradient-26" cx="-174.24" fx="-174.24" r="1" xlink:href="#radial-gradient"/><radialGradient id="radial-gradient-27" cx="-174.24" fx="-174.24" r="1" xlink:href="#radial-gradient"/><radialGradient id="radial-gradient-28" cx="-174.24" cy="388.28" fx="-174.24" fy="388.28" r="1" xlink:href="#radial-gradient"/><radialGradient id="radial-gradient-29" cx="-174.24" cy="388.28" fx="-174.24" fy="388.28" r="1" xlink:href="#radial-gradient"/><radialGradient id="radial-gradient-30" cx="-174.24" cy="388.28" fx="-174.24" fy="388.28" r="1" xlink:href="#radial-gradient"/><radialGradient id="radial-gradient-31" cx="-174.24" cy="388.28" fx="-174.24" fy="388.28" r="1" xlink:href="#radial-gradient"/><radialGradient id="radial-gradient-32" cx="-174.24" cy="388.28" fx="-174.24" fy="388.28" r="1" xlink:href="#radial-gradient"/><radialGradient id="radial-gradient-33" cx="-174.24" fx="-174.24" r="1" xlink:href="#radial-gradient"/><radialGradient id="radial-gradient-34" cx="-174.24" cy="388.28" fx="-174.24" fy="388.28" r="1" xlink:href="#radial-gradient"/><radialGradient id="radial-gradient-35" cx="-174.24" fx="-174.24" xlink:href="#radial-gradient"/><radialGradient id="radial-gradient-36" cx="-174.24" cy="388.28" fx="-174.24" fy="388.28" r="1" xlink:href="#radial-gradient"/><radialGradient id="radial-gradient-37" cx="-174.24" cy="388.28" fx="-174.24" fy="388.28" r="1" xlink:href="#radial-gradient"/><radialGradient id="radial-gradient-38" cx="-174.24" fx="-174.24" r="1" xlink:href="#radial-gradient"/><radialGradient id="radial-gradient-39" cx="-174.24" fx="-174.24" r="1" xlink:href="#radial-gradient"/><radialGradient id="radial-gradient-40" cx="-174.24" fx="-174.24" r="1" xlink:href="#radial-gradient"/><radialGradient id="radial-gradient-41" cx="-174.24" cy="388.28" fx="-174.24" fy="388.28" r="1" xlink:href="#radial-gradient"/><radialGradient id="radial-gradient-42" cy="388.28" fy="388.28" r="1" xlink:href="#radial-gradient"/><radialGradient id="radial-gradient-43" cx="-174.24" cy="388.28" fx="-174.24" fy="388.28" r="1" xlink:href="#radial-gradient"/><radialGradient id="radial-gradient-44" cx="-174.24" cy="388.28" fx="-174.24" fy="388.28" r="1" xlink:href="#radial-gradient"/><radialGradient id="radial-gradient-45" cx="-174.24" fx="-174.24" r="1" xlink:href="#radial-gradient"/><radialGradient id="radial-gradient-46" cx="-174.24" cy="388.28" fx="-174.24" fy="388.28" r="1" xlink:href="#radial-gradient"/><radialGradient id="radial-gradient-47" cx="-174.24" fx="-174.24" r="1" xlink:href="#radial-gradient"/><radialGradient id="radial-gradient-48" cx="-174.24" fx="-174.24" r="1" xlink:href="#radial-gradient"/><radialGradient id="radial-gradient-49" cx="-174.24" cy="388.28" fx="-174.24" fy="388.28" r="1" xlink:href="#radial-gradient"/><radialGradient id="radial-gradient-50" cx="-174.24" fx="-174.24" r="1" xlink:href="#radial-gradient"/><radialGradient id="radial-gradient-51" cx="-174.24" cy="388.28" fx="-174.24" fy="388.28" r="1" xlink:href="#radial-gradient"/><radialGradient id="radial-gradient-52" cy="388.28" fy="388.28" r="1" xlink:href="#radial-gradient"/><radialGradient id="radial-gradient-53" cx="-174.24" fx="-174.24" r="1" xlink:href="#radial-gradient"/></defs><g id="Layer_1-2"><g><polygon class="cls-29" points="43.34 29.49 41.74 30.74 34.1 24.21 35.13 23.41 40.77 28.34 41.85 29.29 41.96 29.21 41.3 27.93 38.08 21.44 39.57 20.28 45.06 25 46.14 25.96 46.25 25.88 45.6 24.59 42.22 17.9 43.24 17.11 47.68 26.12 46.08 27.36 41.71 23.59 39.52 21.65 39.43 21.73 40.76 24.33 43.34 29.49"/><path class="cls-37" d="M52.88,22.86c-.97,.61-1.85,.83-2.64,.66-.79-.17-1.46-.69-2.01-1.57l-.71-1.14c-.56-.9-.77-1.73-.61-2.5,.15-.77,.67-1.43,1.55-1.98,.59-.37,1.15-.57,1.69-.6,.53-.03,1.03,.1,1.48,.38,.45,.28,.86,.7,1.21,1.26l.15,.23c.09,.14,.17,.28,.25,.43,.08,.15,.15,.29,.22,.44l-.97,.61c-.12-.21-.24-.42-.36-.6-.12-.19-.22-.36-.32-.52-.24-.39-.51-.68-.8-.87-.29-.19-.6-.28-.94-.27-.33,.01-.69,.13-1.06,.37-.55,.34-.86,.76-.93,1.25-.08,.49,.07,1.03,.44,1.62l.38,.61,.09,.13,.38,.61c.17,.27,.36,.48,.57,.64,.21,.16,.45,.27,.71,.32,.26,.05,.55,.03,.86-.05,.31-.08,.64-.23,1-.46,.41-.26,.76-.55,1.05-.89,.29-.33,.53-.69,.73-1.07l.47,.97c-.17,.36-.41,.7-.72,1.04-.31,.34-.69,.65-1.15,.94Zm.33-4.25l-4.53,2.84-.5-.8,4.53-2.84,.5,.8Z"/><path class="cls-39" d="M57.76,19.77l-1.1,.58-4.75-9.03,1.1-.58,1.14,2.17,.97,1.93,.12,.21,1.46,2.78,.17,.36,.89,1.58Zm2.25-1c-.41,.21-.8,.33-1.17,.36-.37,.02-.72-.04-1.04-.2-.32-.16-.6-.39-.84-.69l-.37,.19-.21-1.21c.23,.39,.5,.67,.81,.85,.31,.18,.63,.26,.98,.25,.35-.01,.69-.11,1.04-.3,.55-.29,.89-.68,1.01-1.16s.01-1.04-.33-1.69l-.66-1.25c-.33-.63-.73-1.03-1.2-1.21-.47-.17-.98-.11-1.55,.19-.34,.18-.6,.4-.79,.67-.19,.27-.31,.56-.36,.88-.05,.32-.03,.64,.06,.96l-.66-.64,.31-.16c-.09-.34-.12-.68-.07-1.02,.04-.34,.18-.66,.41-.97,.23-.31,.57-.58,1.01-.82,.8-.42,1.54-.49,2.22-.21,.68,.28,1.27,.89,1.76,1.83l.58,1.1c.5,.95,.67,1.79,.51,2.52-.16,.72-.65,1.3-1.47,1.73Z"/><path class="cls-16" d="M65.74,9.12l-4.87,1.96-.37-.92,1.6-.63,.47-.2,2.91-1.17,.26,.96Zm-3.28-3.18c.36-.14,.69-.24,1-.29,.31-.05,.6-.07,.88-.08l.48,.86c-.27,0-.53,.03-.79,.08-.26,.04-.53,.13-.83,.25-.36,.14-.63,.31-.8,.49-.18,.18-.28,.37-.31,.58-.02,.21,.01,.43,.11,.67v.04c.08,.17,.17,.32,.27,.45,.1,.13,.21,.25,.31,.35l-.77,.34-.06-.14c-.19-.05-.39-.16-.58-.32-.19-.16-.35-.38-.46-.65v-.04c-.22-.51-.2-.99,.04-1.44,.24-.45,.74-.83,1.51-1.14Zm3.04,10l-1.15,.46-2.56-6.35,1.15-.46,2.56,6.35Zm5.06-2.04l-1.15,.46-3.81-9.46,1.15-.46,3.81,9.46Z"/><path class="cls-15" d="M75.41,12.5c-1.03,.33-1.89,.3-2.6-.09-.71-.39-1.23-1.1-1.56-2.14l-.35-1.09c-.33-1.04-.31-1.92,.04-2.64,.36-.72,1.05-1.24,2.07-1.57,1.03-.33,1.89-.3,2.6,.09,.71,.38,1.22,1.1,1.55,2.13l.35,1.09c.33,1.04,.32,1.92-.04,2.65-.35,.72-1.05,1.25-2.07,1.57Zm-.31-.97c.64-.2,1.06-.54,1.27-1.02,.21-.48,.2-1.08-.02-1.79l-.39-1.23c-.22-.7-.56-1.19-1.01-1.46-.45-.27-.99-.3-1.63-.1-.63,.2-1.05,.54-1.27,1.02-.21,.48-.21,1.07,.01,1.78l.39,1.23c.22,.71,.56,1.2,1.02,1.47,.45,.27,.99,.31,1.62,.11Z"/><polygon class="cls-29" points="83.08 10.3 81.2 10.69 77.85 3.72 79.11 3.45 81.91 9.61 82.05 9.58 82.24 3 83.97 2.64 86.79 8.59 86.93 8.56 87.03 1.79 88.28 1.53 88.02 9.26 86.15 9.65 83.81 4.68 83.35 3.69 83.23 3.71 83.22 4.81 83.08 10.3"/><path class="cls-23" d="M96.35,11.05l-1.24,.07-.6-10.14,1.24-.07,.05,1.81,.04,.38,.19,3.16v.25s.17,2.1,.17,2.1l.14,2.44Zm2.31-2.63c-.46,.03-.87-.03-1.21-.16-.35-.13-.63-.34-.86-.61-.23-.27-.39-.6-.48-.97l-.41,.02,.29-1.19c.05,.45,.17,.82,.37,1.11,.2,.29,.46,.5,.78,.63,.32,.13,.68,.18,1.07,.16,.63-.04,1.1-.25,1.42-.64,.31-.39,.45-.94,.41-1.65l-.08-1.44c-.04-.71-.24-1.24-.59-1.58-.35-.35-.85-.51-1.49-.47-.38,.02-.71,.12-.99,.28-.28,.17-.51,.38-.69,.65-.18,.27-.29,.57-.34,.9l-.36-.85,.36-.02c.06-.35,.18-.67,.36-.96,.18-.29,.44-.53,.78-.72,.34-.19,.76-.3,1.26-.33,.9-.05,1.6,.19,2.11,.72,.5,.53,.79,1.33,.85,2.4l.07,1.24c.06,1.08-.13,1.91-.57,2.5-.44,.59-1.13,.91-2.06,.97Z"/><path class="cls-3" d="M105.06,8.36c-.74-.03-1.31-.23-1.69-.61-.38-.38-.56-.9-.54-1.57v-.22c.04-.69,.27-1.2,.71-1.53,.44-.32,1.13-.54,2.07-.63l2.39-.25,.03,.91-2.31,.24c-.58,.06-.99,.18-1.25,.37-.25,.19-.39,.47-.4,.86v.12c-.02,.39,.09,.7,.33,.92,.24,.22,.6,.34,1.08,.36,.43,.02,.8-.04,1.12-.18,.31-.14,.57-.33,.77-.57,.2-.24,.34-.52,.42-.82l.16,.85h-.24c-.08,.32-.23,.62-.44,.89-.21,.27-.49,.49-.85,.65-.36,.16-.82,.23-1.36,.21Zm3.83-.01l-1.24-.05,.12-1.82-.04-.19,.09-2.39,.02-.44c.02-.61-.11-1.07-.41-1.37-.3-.3-.78-.47-1.46-.5-.54-.02-1.04,.04-1.49,.17-.45,.14-.86,.3-1.22,.49l.16-1.06c.2-.11,.44-.22,.71-.32s.59-.19,.93-.25c.35-.06,.73-.09,1.15-.07,.54,.02,.99,.1,1.37,.25,.37,.15,.67,.35,.89,.6,.22,.26,.38,.56,.48,.91,.09,.35,.13,.74,.12,1.18l-.19,4.86Z"/><path class="cls-29" d="M112.03,8.63l-1.24-.14,.83-7.47,1.21,.13-.31,2.2,.08,.1-.58,5.17Zm.45-4.57l-.18-.99,.31,.02c.23-.61,.57-1.08,1.01-1.4,.44-.32,.99-.44,1.64-.37,.16,.02,.31,.05,.44,.09,.13,.04,.24,.08,.34,.13l-.06,1.21c-.12-.05-.26-.1-.41-.15-.15-.04-.32-.07-.51-.1-.56-.06-1.07,.04-1.52,.3-.45,.26-.8,.68-1.06,1.25Z"/><path class="cls-14" d="M122.37,3.7l-5.32-.98,.18-.98,5.44,1.01-.3,.96Zm-2.93,6.13c-.57-.11-1.01-.28-1.33-.51-.32-.24-.52-.54-.61-.92-.09-.38-.09-.83,0-1.35l.86-4.66,1.21,.22-.84,4.52c-.09,.48-.04,.86,.13,1.13,.18,.27,.53,.45,1.06,.55,.3,.06,.59,.08,.88,.06,.29-.01,.56-.06,.83-.14l-.31,1.03c-.26,.08-.55,.12-.89,.13-.33,.01-.67-.01-1-.08Zm.16-7.53l-1.17-.22,.38-2.08,1.26,.07-.47,2.22Z"/><path class="cls-52" d="M123.98,10.57l-1.21-.31,1.89-7.27,1.21,.31-.51,1.73,.03,.08-1.42,5.46Zm4.86,1.27l-1.21-.31,1.18-4.52c.1-.39,.14-.74,.1-1.05-.03-.31-.15-.58-.35-.8-.2-.22-.51-.38-.93-.49-.38-.1-.73-.11-1.05-.04-.32,.07-.6,.21-.83,.41-.24,.2-.43,.45-.58,.74v-.91s.27,.07,.27,.07c.16-.31,.38-.57,.65-.79,.27-.22,.59-.37,.97-.44,.38-.07,.81-.05,1.3,.08,.58,.15,1.01,.38,1.31,.69,.3,.31,.48,.69,.53,1.15,.06,.45,0,.98-.15,1.57l-1.21,4.66Z"/><path class="cls-5" d="M133.63,13.56c-1.08-.37-1.81-.91-2.18-1.62-.37-.72-.39-1.57-.05-2.55l.43-1.27c.34-1,.85-1.69,1.55-2.06,.69-.37,1.53-.39,2.51-.06,.66,.22,1.17,.53,1.53,.93,.36,.4,.57,.86,.65,1.38,.07,.53,0,1.11-.21,1.73l-.09,.26c-.05,.16-.11,.31-.18,.46-.06,.15-.13,.3-.2,.44l-1.09-.37c.09-.23,.17-.45,.24-.66,.07-.21,.14-.4,.2-.57,.15-.43,.2-.82,.16-1.17-.04-.35-.17-.64-.39-.9-.22-.25-.54-.45-.95-.59-.61-.21-1.13-.18-1.56,.07-.43,.25-.75,.71-.97,1.37l-.23,.68-.04,.15-.23,.68c-.1,.3-.15,.58-.14,.85,0,.27,.07,.52,.2,.76,.13,.24,.32,.45,.58,.64,.26,.19,.59,.35,.99,.48,.46,.16,.91,.24,1.35,.25,.44,.01,.87-.03,1.29-.12l-.45,.98c-.38,.09-.8,.13-1.26,.11-.46-.02-.94-.12-1.45-.29Zm3.5-2.43l-5.06-1.71,.3-.89,5.06,1.71-.3,.89Z"/><path class="cls-50" d="M139.08,15.47l-1.15-.48,2.91-6.93,1.12,.47-.92,2.02,.05,.12-2.02,4.8Zm1.72-4.26l.11-1,.29,.11c.4-.52,.85-.88,1.36-1.06,.51-.18,1.07-.15,1.68,.11,.15,.06,.28,.13,.39,.21,.11,.07,.21,.15,.29,.22l-.4,1.14c-.1-.09-.22-.17-.36-.26-.13-.08-.29-.16-.46-.24-.52-.22-1.03-.26-1.54-.14-.51,.13-.96,.43-1.37,.9Z"/><path class="cls-25" d="M159.32,22.91c-.36-.26-.56-.55-.6-.87-.03-.33,.08-.67,.34-1.04l.08-.11c.26-.36,.54-.58,.86-.66,.32-.07,.66,.02,1.02,.27,.36,.26,.57,.55,.6,.87,.04,.32-.08,.67-.33,1.03l-.08,.11c-.26,.37-.55,.59-.87,.67-.32,.08-.66-.01-1.02-.27Z"/><polygon class="cls-31" points="173.69 40.48 172.36 38.94 178.49 30.99 179.34 31.98 174.71 37.86 173.81 38.99 173.9 39.09 175.14 38.37 181.46 34.83 182.69 36.26 178.25 41.98 177.35 43.1 177.44 43.21 178.69 42.49 185.2 38.78 186.04 39.76 177.27 44.64 175.95 43.12 179.5 38.56 181.32 36.28 181.24 36.19 178.71 37.64 173.69 40.48"/><path class="cls-45" d="M180.59,49.82c-.63-.95-.88-1.83-.73-2.62,.15-.79,.65-1.48,1.52-2.05l1.12-.74c.88-.58,1.71-.81,2.48-.68,.77,.13,1.45,.63,2.02,1.5,.39,.58,.6,1.14,.64,1.67,.04,.53-.07,1.03-.34,1.49-.27,.46-.68,.87-1.23,1.24l-.23,.15c-.14,.09-.28,.18-.42,.26-.14,.08-.29,.16-.43,.23l-.63-.96c.21-.13,.41-.25,.59-.37,.19-.12,.36-.23,.51-.33,.38-.25,.66-.53,.84-.82,.18-.3,.26-.61,.24-.95-.02-.33-.15-.68-.39-1.05-.36-.54-.78-.84-1.27-.9-.49-.06-1.03,.1-1.61,.48l-.6,.4-.12,.09-.6,.4c-.26,.17-.47,.37-.63,.58-.16,.22-.26,.46-.3,.72-.04,.27-.02,.55,.07,.86,.09,.31,.25,.64,.48,.99,.27,.41,.57,.75,.91,1.03,.34,.28,.7,.51,1.09,.7l-.96,.5c-.36-.16-.71-.39-1.06-.69-.35-.3-.67-.67-.97-1.12Zm4.26,.23l-2.95-4.45,.78-.52,2.95,4.45-.78,.52Z"/><path class="cls-36" d="M183.81,54.62l-.61-1.09,8.91-4.97,.6,1.08-2.14,1.19-1.9,1.02-.2,.12-2.74,1.53-.36,.18-1.56,.93Zm1.06,2.22c-.23-.4-.35-.79-.39-1.16-.03-.37,.03-.72,.17-1.05,.15-.32,.37-.61,.67-.86l-.2-.36,1.21-.24c-.38,.24-.66,.52-.83,.83-.17,.31-.24,.64-.22,.98,.02,.35,.13,.69,.32,1.04,.31,.55,.7,.87,1.18,.98,.48,.11,1.04-.01,1.68-.37l1.23-.69c.62-.35,1.01-.76,1.17-1.23,.16-.47,.08-.99-.23-1.54-.19-.33-.41-.59-.69-.77-.27-.18-.57-.3-.89-.34-.32-.04-.64-.02-.96,.08l.62-.67,.17,.31c.34-.1,.68-.13,1.02-.1,.34,.04,.67,.16,.98,.38,.31,.22,.59,.55,.84,.99,.44,.79,.53,1.53,.27,2.21-.26,.69-.86,1.29-1.79,1.81l-1.09,.61c-.94,.53-1.78,.72-2.5,.57-.73-.14-1.32-.62-1.77-1.43Z"/><path class="cls-10" d="M187.84,62.25l-.49-1.14,6.28-2.72,.49,1.14-6.28,2.72Zm2.16,5l-.49-1.14,9.36-4.05,.49,1.14-9.36,4.05Zm4.66-4.93l-2.08-4.82,.91-.39,.67,1.58,.21,.46,1.25,2.88-.96,.29Zm3.09-3.36c.15,.35,.26,.68,.32,.99,.06,.31,.09,.6,.1,.88l-.85,.5c-.01-.27-.05-.53-.1-.78-.05-.25-.14-.53-.27-.82-.15-.35-.32-.62-.51-.79-.18-.17-.38-.27-.59-.29-.21-.02-.43,.02-.66,.12l-.04,.02c-.16,.07-.31,.16-.44,.27-.13,.11-.25,.21-.35,.32l-.36-.76,.14-.06c.05-.19,.15-.39,.31-.59,.15-.2,.37-.36,.63-.47l.04-.02c.5-.22,.99-.21,1.44,.01,.46,.23,.85,.72,1.18,1.48Z"/><path class="cls-43" d="M191.53,72.08c-.35-1.02-.34-1.89,.03-2.6,.37-.72,1.07-1.25,2.1-1.61l1.08-.37c1.03-.35,1.91-.36,2.64-.02,.73,.34,1.27,1.02,1.62,2.03,.35,1.02,.34,1.89-.02,2.6-.37,.72-1.06,1.25-2.09,1.61l-1.08,.37c-1.03,.36-1.92,.37-2.65,.03-.73-.34-1.27-1.01-1.63-2.03Zm.96-.33c.22,.63,.57,1.05,1.06,1.24,.49,.2,1.08,.18,1.79-.07l1.22-.42c.7-.24,1.18-.59,1.44-1.04s.28-1,.06-1.63c-.22-.63-.57-1.04-1.05-1.24-.48-.2-1.08-.18-1.78,.06l-1.22,.42c-.7,.24-1.19,.59-1.44,1.05-.26,.46-.28,1-.07,1.63Z"/><polygon class="cls-51" points="193.95 79.68 193.51 77.81 200.39 74.29 200.69 75.54 194.6 78.49 194.63 78.64 201.22 78.66 201.63 80.38 195.75 83.35 195.78 83.48 202.55 83.42 202.84 84.66 195.11 84.59 194.67 82.73 199.58 80.27 200.56 79.78 200.53 79.67 199.44 79.69 193.95 79.68"/><path class="cls-24" d="M193.54,92.96l-.1-1.24,10.13-.85,.1,1.24-1.81,.1-.38,.05-3.15,.26h-.25s-2.1,.23-2.1,.23l-2.43,.2Zm2.68,2.25c-.04-.46,0-.87,.13-1.22s.32-.64,.59-.88c.27-.23,.59-.4,.96-.51l-.03-.41,1.2,.26c-.45,.06-.81,.19-1.1,.4-.28,.21-.49,.47-.61,.8-.12,.32-.17,.68-.13,1.08,.05,.63,.28,1.1,.67,1.4,.4,.3,.95,.43,1.66,.37l1.43-.12c.71-.06,1.23-.27,1.57-.63,.34-.36,.48-.86,.43-1.5-.03-.38-.13-.71-.31-.99-.17-.28-.39-.5-.67-.67-.27-.17-.57-.28-.91-.32l.84-.38,.03,.36c.35,.05,.67,.17,.97,.34,.3,.17,.54,.43,.74,.76,.19,.33,.31,.75,.36,1.26,.08,.9-.15,1.61-.67,2.13-.52,.52-1.31,.82-2.38,.91l-1.24,.1c-1.07,.09-1.91-.08-2.51-.5-.6-.43-.94-1.1-1.02-2.04Z"/><path class="cls-12" d="M196.47,101.6c.01-.74,.2-1.31,.57-1.7,.37-.39,.89-.58,1.56-.57h.22c.69,.01,1.21,.23,1.54,.67,.34,.43,.56,1.12,.68,2.05l.3,2.38-.91,.06-.3-2.3c-.07-.58-.21-.99-.4-1.24-.19-.25-.48-.38-.87-.38h-.12c-.4,0-.7,.11-.91,.35-.21,.24-.32,.6-.33,1.09,0,.43,.06,.8,.21,1.11,.14,.31,.34,.56,.59,.76,.25,.19,.53,.33,.83,.4l-.85,.18v-.24c-.32-.08-.63-.22-.91-.42-.28-.2-.5-.48-.67-.84-.17-.36-.25-.81-.24-1.36Zm.11,3.83l.02-1.24,1.82,.08,.19-.04,2.39,.03h.44c.61,.02,1.06-.13,1.36-.43,.3-.31,.45-.8,.46-1.47,0-.54-.06-1.03-.21-1.49-.15-.45-.32-.85-.52-1.2l1.06,.13c.12,.2,.23,.43,.34,.7s.2,.58,.28,.93c.07,.35,.11,.73,.1,1.14,0,.54-.08,1-.22,1.37-.14,.38-.33,.68-.58,.91-.25,.23-.55,.4-.9,.5-.35,.1-.74,.15-1.17,.14l-4.86-.07Z"/><path class="cls-13" d="M196.38,108.58l.11-1.24,7.49,.65-.11,1.21-2.2-.25-.1,.08-5.18-.45Zm4.58,.34l.98-.2v.31c.61,.22,1.08,.54,1.41,.97,.33,.43,.47,.98,.41,1.64-.01,.16-.04,.31-.08,.44-.04,.13-.08,.24-.12,.34l-1.21-.03c.05-.12,.1-.26,.14-.42,.04-.15,.07-.33,.08-.51,.05-.56-.06-1.07-.34-1.51-.28-.44-.7-.79-1.28-1.03Z"/><path class="cls-22" d="M195.39,116.01c.08-.57,.23-1.03,.45-1.35s.52-.55,.89-.66c.37-.11,.82-.13,1.34-.06l4.7,.64-.17,1.22-4.55-.62c-.49-.07-.86,0-1.12,.19-.26,.19-.43,.55-.5,1.08-.04,.3-.05,.59-.02,.88,.03,.29,.09,.56,.18,.82l-1.04-.26c-.09-.26-.15-.55-.18-.88-.03-.33-.02-.67,.03-1.01Zm6.26,2.64l.73-5.36,.99,.13-.74,5.48-.98-.25Zm1.27-2.83l.16-1.18,2.09,.28v1.27s-2.25-.36-2.25-.36Z"/><path class="cls-48" d="M193.62,125.47l.29-1.21,4.55,1.07c.39,.09,.75,.12,1.06,.08,.31-.04,.57-.16,.79-.37,.21-.21,.37-.52,.47-.94,.09-.38,.1-.74,.02-1.05-.08-.32-.22-.59-.43-.82-.21-.23-.46-.42-.76-.57h.91s-.06,.25-.06,.25c.31,.16,.58,.37,.8,.63,.23,.26,.38,.58,.46,.96,.08,.38,.07,.81-.05,1.3-.14,.58-.36,1.02-.66,1.33-.3,.31-.68,.49-1.13,.56-.45,.07-.98,.03-1.58-.11l-4.68-1.1Zm1.15-4.89l.29-1.21,7.31,1.72-.29,1.21-1.74-.46-.08,.04-5.49-1.29Z"/><path class="cls-35" d="M192.02,130.3c.34-1.09,.86-1.83,1.57-2.22,.71-.39,1.56-.43,2.55-.12l1.28,.4c1.01,.31,1.71,.81,2.09,1.5,.39,.68,.42,1.52,.12,2.51-.21,.67-.5,1.18-.89,1.55-.39,.37-.84,.59-1.37,.68-.53,.08-1.1,.03-1.74-.17l-.26-.08c-.16-.05-.31-.1-.46-.17-.15-.06-.3-.13-.45-.19l.34-1.1c.23,.08,.45,.16,.66,.23,.21,.07,.4,.13,.58,.18,.44,.14,.83,.18,1.17,.14,.34-.05,.64-.18,.89-.41,.25-.23,.43-.55,.56-.97,.19-.62,.16-1.14-.1-1.56-.26-.42-.73-.73-1.39-.94l-.68-.21-.15-.04-.68-.21c-.3-.09-.58-.13-.85-.12-.27,.01-.52,.09-.75,.22-.23,.13-.44,.33-.62,.6-.18,.26-.33,.6-.46,1-.15,.47-.22,.92-.22,1.36,0,.44,.05,.87,.15,1.29l-.99-.43c-.1-.38-.15-.8-.14-1.26,.01-.46,.1-.95,.26-1.46Zm2.51,3.44l1.59-5.1,.9,.28-1.59,5.1-.9-.28Z"/><path class="cls-20" d="M190.26,135.8l.46-1.16,6.99,2.74-.44,1.13-2.04-.87-.12,.05-4.84-1.9Zm4.3,1.62l1,.09-.1,.29c.53,.39,.9,.83,1.09,1.34,.2,.51,.17,1.07-.07,1.68-.06,.15-.13,.29-.2,.4-.07,.11-.14,.21-.21,.29l-1.15-.37c.09-.1,.17-.22,.25-.36,.08-.14,.16-.29,.23-.47,.21-.53,.24-1.04,.1-1.54-.14-.5-.45-.95-.94-1.35Z"/><path class="cls-21" d="M183.35,156.24c.25-.37,.53-.58,.86-.62,.32-.04,.67,.06,1.05,.31l.11,.07c.37,.25,.6,.53,.68,.84,.08,.31,0,.66-.25,1.03-.25,.37-.53,.58-.86,.62-.32,.04-.67-.06-1.04-.31l-.11-.07c-.38-.25-.61-.53-.69-.85-.08-.32,0-.66,.25-1.03Z"/><polygon class="cls-30" points="166.17 171.06 167.68 169.69 175.78 175.62 174.81 176.5 168.82 172.01 167.67 171.14 167.57 171.23 168.32 172.46 172.02 178.69 170.62 179.95 164.79 175.66 163.65 174.78 163.54 174.88 164.29 176.11 168.16 182.52 167.2 183.39 162.1 174.74 163.6 173.38 168.24 176.82 170.56 178.58 170.65 178.5 169.13 176 166.17 171.06"/><path class="cls-9" d="M157.02,178.21c.94-.66,1.8-.92,2.6-.79,.8,.13,1.49,.62,2.09,1.47l.77,1.1c.61,.87,.85,1.69,.74,2.47-.11,.78-.6,1.46-1.44,2.06-.57,.4-1.12,.63-1.65,.68-.53,.06-1.03-.05-1.5-.3-.47-.26-.89-.66-1.27-1.2l-.16-.23c-.09-.13-.18-.27-.27-.41-.08-.14-.16-.28-.24-.43l.94-.66c.13,.21,.26,.4,.39,.59,.12,.18,.24,.35,.35,.5,.26,.37,.54,.65,.84,.82,.3,.17,.62,.25,.95,.22,.33-.03,.68-.17,1.04-.42,.53-.37,.82-.8,.87-1.29,.05-.49-.12-1.02-.52-1.6l-.41-.59-.09-.12-.41-.59c-.18-.26-.38-.46-.6-.61-.22-.15-.46-.25-.73-.28-.27-.04-.55,0-.86,.09-.3,.1-.63,.27-.97,.51-.4,.28-.73,.59-1.01,.94-.27,.35-.5,.72-.67,1.11l-.52-.95c.15-.36,.37-.72,.66-1.08,.29-.36,.66-.69,1.1-1Zm-.12,4.26l4.38-3.06,.54,.77-4.38,3.06-.54-.77Z"/><path class="cls-29" d="M150.11,182.67c.4-.24,.78-.37,1.15-.42,.37-.04,.72,0,1.05,.15,.33,.14,.62,.36,.87,.65l.36-.21,.27,1.2c-.25-.38-.54-.64-.85-.81-.31-.16-.64-.23-.99-.2-.35,.03-.69,.15-1.03,.35-.54,.32-.86,.72-.95,1.21s.04,1.04,.41,1.67l.72,1.21c.36,.61,.78,.99,1.26,1.14,.48,.15,.99,.06,1.53-.26,.33-.19,.58-.43,.75-.71,.18-.28,.28-.58,.32-.89,.03-.32,0-.64-.11-.96l.69,.6-.3,.18c.11,.34,.15,.67,.12,1.01-.03,.34-.15,.67-.36,.99-.21,.32-.53,.61-.97,.87-.78,.46-1.51,.57-2.2,.33-.69-.24-1.31-.82-1.85-1.74l-.64-1.07c-.55-.93-.76-1.76-.64-2.49,.13-.73,.59-1.33,1.38-1.8Zm2.2-1.11l1.07-.64,5.2,8.78-1.07,.63-1.25-2.11-1.06-1.87-.13-.2-1.6-2.7-.19-.35-.97-1.54Z"/><path class="cls-47" d="M139.84,188.07l1.12-.52,4.28,9.26-1.12,.52-4.28-9.26Zm4.95-2.29l1.12-.52,2.87,6.21-1.12,.52-2.87-6.21Zm.1,6.82l4.77-2.2,.42,.9-1.56,.71-.46,.22-2.85,1.32-.31-.95Zm3.44,3.01c-.35,.16-.68,.28-.98,.34-.31,.07-.6,.11-.87,.12l-.52-.84c.27-.02,.53-.06,.78-.12s.52-.15,.81-.29c.35-.16,.61-.34,.78-.53,.17-.19,.26-.39,.28-.59,.01-.21-.03-.43-.14-.66l-.02-.03c-.08-.16-.17-.31-.28-.44-.11-.13-.22-.24-.33-.34l.75-.38,.06,.14c.2,.04,.4,.14,.6,.29,.2,.15,.36,.36,.49,.62l.02,.03c.23,.5,.24,.98,.02,1.44-.21,.46-.7,.87-1.45,1.22Z"/><path class="cls-33" d="M135.06,189.73c1.01-.38,1.88-.39,2.6-.04,.73,.35,1.28,1.04,1.66,2.06l.4,1.07c.38,1.02,.41,1.9,.09,2.64-.32,.74-.98,1.3-1.99,1.67-1.01,.38-1.88,.39-2.6,.04-.72-.35-1.28-1.03-1.66-2.05l-.4-1.07c-.38-1.02-.41-1.91-.1-2.65,.32-.74,.98-1.3,1.99-1.68Zm.36,.95c-.62,.23-1.03,.6-1.22,1.09-.19,.49-.15,1.09,.11,1.78l.45,1.2c.26,.69,.62,1.16,1.08,1.41,.46,.25,1.01,.25,1.63,.02,.62-.23,1.03-.59,1.21-1.08,.19-.49,.16-1.08-.1-1.77l-.45-1.2c-.26-.7-.62-1.17-1.09-1.42-.47-.25-1.01-.26-1.63-.02Z"/><polygon class="cls-8" points="127.52 192.34 129.38 191.86 133.07 198.65 131.83 198.98 128.72 192.97 128.58 193 128.72 199.59 127.01 200.04 123.9 194.24 123.76 194.27 124 201.04 122.76 201.36 122.64 193.63 124.49 193.14 127.07 197.99 127.58 198.96 127.69 198.93 127.65 197.83 127.52 192.34"/><path class="cls-18" d="M112.06,195.03c.46-.05,.87-.02,1.22,.1,.35,.12,.65,.31,.89,.57,.24,.26,.42,.58,.53,.95l.41-.04-.23,1.2c-.07-.45-.21-.81-.42-1.09-.21-.28-.48-.48-.81-.59-.33-.11-.69-.15-1.08-.11-.63,.07-1.09,.3-1.38,.71-.29,.4-.4,.96-.33,1.67l.16,1.43c.08,.7,.3,1.22,.67,1.55,.37,.33,.87,.46,1.51,.39,.38-.04,.7-.15,.98-.33,.27-.18,.49-.41,.66-.68,.16-.28,.26-.58,.3-.92l.4,.83-.36,.04c-.04,.35-.15,.68-.32,.98-.17,.3-.41,.55-.74,.75-.33,.2-.74,.33-1.25,.39-.9,.1-1.61-.11-2.14-.62-.53-.51-.85-1.29-.97-2.35l-.13-1.24c-.12-1.07,.03-1.91,.44-2.53,.41-.61,1.08-.97,2.01-1.07Zm2.18-2.74l1.23-.13,1.09,10.1-1.24,.13-.14-1.8-.06-.38-.34-3.15-.02-.25-.27-2.09-.26-2.43Z"/><path class="cls-44" d="M101.85,195.65h1.24s-.04,1.81-.04,1.81l.05,.19,.02,2.39v.44c0,.61,.16,1.06,.48,1.35,.31,.29,.81,.43,1.48,.42,.54,0,1.03-.09,1.48-.25,.45-.16,.84-.34,1.19-.55l-.1,1.06c-.19,.12-.42,.24-.69,.36-.27,.12-.58,.22-.92,.3-.35,.08-.73,.12-1.14,.13-.54,0-1-.06-1.38-.18-.38-.13-.69-.31-.92-.56-.24-.24-.41-.54-.52-.89-.11-.35-.17-.74-.17-1.17l-.05-4.87Zm3.82-.2c.74,0,1.32,.17,1.72,.53,.4,.36,.61,.87,.61,1.55v.22c0,.69-.2,1.21-.62,1.56-.43,.35-1.1,.59-2.04,.73l-2.38,.36-.08-.91,2.29-.35c.57-.09,.98-.23,1.23-.43,.24-.2,.36-.49,.36-.88v-.12c0-.4-.13-.7-.38-.9-.25-.21-.61-.31-1.1-.3-.43,0-.8,.08-1.11,.23-.31,.15-.55,.35-.74,.61-.19,.25-.31,.53-.38,.84l-.2-.84h.24c.07-.33,.2-.64,.39-.92,.19-.28,.47-.51,.82-.69,.35-.18,.8-.27,1.35-.27Z"/><path class="cls-4" d="M98.47,200.14l.22,.98h-.31c-.2,.62-.52,1.1-.94,1.45-.42,.34-.96,.49-1.62,.45-.16-.01-.31-.03-.44-.07-.13-.03-.24-.07-.34-.11v-1.21c.12,.05,.26,.09,.42,.13,.15,.04,.33,.06,.52,.07,.56,.04,1.06-.09,1.5-.38,.44-.29,.77-.72,1-1.3Zm.23-4.59l1.24,.08-.47,7.5-1.21-.08,.2-2.21-.09-.1,.33-5.19Z"/><path class="cls-28" d="M88.75,201.08l5.38,.6-.11,.99-5.49-.61,.23-.98Zm2.49-6.32c.58,.06,1.03,.2,1.36,.42,.33,.21,.56,.5,.68,.87,.12,.37,.15,.82,.09,1.34l-.52,4.71-1.22-.14,.51-4.57c.05-.49-.02-.86-.22-1.12-.2-.26-.56-.42-1.09-.47-.3-.03-.59-.03-.88,0-.29,.04-.56,.1-.82,.2l.23-1.05c.25-.1,.54-.16,.87-.2,.33-.04,.66-.03,1.01,0Zm.38,7.52l1.19,.13-.23,2.1-1.26,.02,.3-2.25Z"/><path class="cls-49" d="M81.73,193.3l1.23,.23-.85,4.59c-.07,.4-.08,.75-.03,1.06,.06,.31,.19,.56,.41,.77,.22,.2,.54,.35,.96,.42,.39,.07,.74,.06,1.05-.03,.31-.09,.58-.25,.8-.47,.22-.22,.4-.48,.53-.78l.06,.91-.26-.05c-.14,.32-.34,.6-.59,.83-.25,.24-.56,.41-.94,.51-.37,.1-.8,.11-1.3,.01-.59-.11-1.04-.31-1.36-.6-.32-.29-.52-.66-.61-1.1-.09-.45-.08-.97,.03-1.58l.87-4.73Zm4.94,.91l1.23,.23-1.37,7.39-1.23-.23,.38-1.76-.04-.08,1.03-5.55Z"/><path class="cls-46" d="M76.87,191.76c1.1,.31,1.85,.82,2.26,1.52,.4,.7,.46,1.55,.18,2.55l-.37,1.29c-.29,1.02-.77,1.73-1.45,2.13-.68,.4-1.51,.46-2.51,.18-.67-.19-1.2-.48-1.57-.85-.38-.38-.61-.83-.71-1.35-.1-.52-.05-1.1,.13-1.74l.08-.27c.05-.16,.1-.31,.15-.47,.06-.15,.12-.31,.18-.45l1.1,.32c-.08,.23-.15,.46-.21,.67-.06,.21-.12,.41-.17,.58-.13,.44-.16,.83-.11,1.17,.05,.34,.2,.64,.43,.88,.23,.24,.56,.42,.98,.54,.62,.18,1.14,.13,1.55-.14,.41-.27,.72-.74,.91-1.41l.2-.69,.03-.15,.2-.69c.09-.3,.12-.59,.1-.85-.02-.27-.1-.52-.24-.74-.14-.23-.34-.43-.61-.61-.27-.18-.6-.32-1.01-.44-.47-.13-.92-.2-1.36-.19-.44,0-.87,.07-1.28,.18l.41-1c.38-.11,.8-.17,1.26-.17,.46,0,.95,.07,1.47,.22Zm-3.38,2.6l5.14,1.47-.26,.9-5.14-1.47,.26-.9Z"/><path class="cls-38" d="M69.81,194.48l-.06,1-.29-.09c-.37,.54-.81,.92-1.31,1.12-.5,.21-1.06,.2-1.69-.03-.15-.06-.29-.12-.4-.19-.11-.07-.21-.14-.3-.21l.34-1.16c.11,.08,.23,.16,.37,.24,.14,.08,.3,.15,.47,.21,.53,.19,1.05,.21,1.55,.06,.5-.15,.94-.47,1.32-.97Zm1.52-4.34l1.17,.43-2.58,7.06-1.14-.42,.82-2.06-.06-.12,1.78-4.89Z"/><path class="cls-1" d="M50.71,183.77c.38,.24,.59,.52,.64,.84,.05,.32-.05,.68-.29,1.06l-.07,.11c-.24,.38-.52,.61-.83,.7-.31,.09-.66,.02-1.03-.22-.38-.24-.59-.52-.64-.84-.05-.32,.04-.67,.28-1.05l.07-.11c.24-.38,.52-.62,.83-.71,.31-.09,.66-.02,1.04,.22Z"/><polygon class="cls-17" points="35.44 167 36.84 168.47 31.11 176.72 30.21 175.78 34.55 169.67 35.39 168.5 35.3 168.4 34.09 169.19 27.96 173.03 26.66 171.67 30.81 165.73 31.65 164.57 31.56 164.47 30.34 165.24 24.03 169.27 23.13 168.33 31.66 163.02 33.05 164.48 29.73 169.21 28.02 171.58 28.11 171.67 30.57 170.08 35.44 167"/><path class="cls-27" d="M28.05,158.04c.68,.92,.97,1.78,.86,2.58-.11,.8-.58,1.51-1.42,2.13l-1.08,.8c-.85,.63-1.67,.89-2.45,.8-.78-.09-1.48-.56-2.09-1.39-.41-.56-.66-1.11-.72-1.64-.07-.53,.02-1.03,.26-1.5,.24-.47,.63-.91,1.17-1.3l.22-.16c.13-.1,.27-.19,.41-.28,.14-.09,.28-.17,.42-.25l.68,.92c-.2,.14-.4,.27-.58,.4-.18,.13-.34,.25-.49,.36-.37,.27-.64,.56-.8,.86-.17,.31-.23,.62-.19,.96,.04,.33,.19,.67,.45,1.03,.38,.52,.82,.8,1.32,.84,.49,.04,1.02-.15,1.58-.56l.58-.42,.12-.1,.58-.42c.25-.19,.45-.39,.6-.61,.15-.22,.24-.47,.27-.74,.03-.27,0-.55-.11-.85-.1-.3-.28-.62-.53-.96-.29-.39-.61-.72-.96-.98-.35-.26-.73-.48-1.12-.64l.94-.55c.37,.14,.73,.36,1.1,.64,.36,.28,.7,.64,1.02,1.07Zm-4.26-.01l3.17,4.3-.76,.56-3.17-4.3,.76-.56Z"/><path class="cls-40" d="M24.58,153.42l.66,1.06-8.64,5.42-.66-1.05,2.07-1.3,1.85-1.11,.2-.13,2.66-1.67,.35-.2,1.51-1.01Zm-1.17-2.17c.25,.39,.39,.77,.44,1.14,.05,.37,.01,.72-.12,1.05-.13,.33-.34,.63-.62,.89l.22,.35-1.19,.3c.37-.26,.63-.55,.79-.87,.15-.32,.21-.65,.17-.99-.04-.34-.17-.68-.37-1.02-.33-.53-.74-.84-1.23-.92-.49-.08-1.04,.07-1.66,.45l-1.19,.75c-.6,.38-.97,.81-1.11,1.29-.14,.48-.03,.99,.3,1.53,.2,.32,.44,.57,.72,.74,.28,.17,.58,.27,.9,.29,.32,.03,.64-.02,.95-.13l-.59,.7-.19-.3c-.33,.12-.67,.17-1.01,.15-.34-.02-.67-.13-1-.33-.32-.2-.62-.52-.89-.95-.48-.77-.61-1.5-.38-2.2,.23-.7,.79-1.33,1.7-1.9l1.06-.66c.91-.57,1.74-.81,2.47-.7,.73,.11,1.35,.55,1.84,1.33Z"/><path class="cls-32" d="M17.75,141.12l.55,1.11-9.15,4.52-.55-1.11,9.15-4.52Zm-7.33,8.67c-.17-.35-.29-.67-.37-.97-.07-.3-.12-.59-.14-.87l.82-.54c.03,.27,.07,.53,.14,.78,.06,.25,.17,.52,.31,.81,.17,.35,.35,.6,.55,.77,.19,.17,.39,.25,.6,.26,.21,0,.43-.04,.66-.16l.03-.02c.16-.08,.3-.18,.43-.29,.12-.11,.23-.22,.33-.33l.4,.74-.14,.07c-.04,.2-.13,.4-.28,.6-.14,.21-.35,.37-.61,.5l-.03,.02c-.49,.24-.97,.26-1.44,.06-.47-.2-.89-.68-1.25-1.42Zm2.92-3.51l2.32,4.71-.89,.44-.75-1.54-.23-.45-1.39-2.82,.94-.34Zm6.82-.28l.55,1.11-6.14,3.03-.55-1.11,6.14-3.03Z"/><path class="cls-53" d="M15.96,136.39c.4,1,.44,1.87,.1,2.6-.33,.73-1.01,1.31-2.02,1.71l-1.06,.43c-1.01,.41-1.89,.46-2.63,.16-.75-.3-1.32-.95-1.72-1.95-.4-1-.44-1.87-.11-2.6,.33-.73,1-1.3,2.01-1.71l1.06-.43c1.01-.41,1.9-.46,2.64-.16,.75,.3,1.32,.95,1.73,1.95Zm-.94,.38c-.25-.62-.62-1.02-1.12-1.19-.5-.17-1.09-.12-1.78,.16l-1.19,.48c-.69,.28-1.15,.65-1.38,1.12-.23,.47-.23,1.01,.02,1.63,.25,.61,.62,1.01,1.11,1.19,.49,.18,1.08,.13,1.77-.15l1.19-.48c.69-.28,1.15-.65,1.39-1.12,.24-.47,.23-1.01-.02-1.63Z"/><polygon class="cls-42" points="13.14 128.93 13.67 130.77 6.97 134.63 6.61 133.4 12.55 130.14 12.51 130 5.93 130.3 5.43 128.61 11.16 125.35 11.12 125.22 4.36 125.62 4 124.39 11.74 124.08 12.27 125.91 7.49 128.62 6.53 129.15 6.56 129.26 7.66 129.19 13.14 128.93"/><path class="cls-2" d="M10.04,113.54c.06,.46,.04,.86-.07,1.22-.11,.36-.29,.66-.55,.9-.26,.25-.57,.43-.94,.55l.05,.4-1.21-.2c.44-.08,.8-.23,1.08-.45,.27-.22,.46-.5,.57-.83,.11-.33,.13-.69,.08-1.08-.08-.63-.33-1.08-.74-1.37-.41-.28-.97-.38-1.68-.29l-1.43,.19c-.7,.09-1.21,.33-1.54,.71-.32,.38-.44,.88-.36,1.52,.05,.38,.17,.7,.35,.97,.19,.27,.42,.48,.7,.64,.28,.16,.59,.25,.92,.28l-.82,.42-.05-.36c-.35-.04-.68-.13-.98-.29-.3-.16-.56-.4-.77-.72-.21-.32-.35-.73-.42-1.24-.12-.9,.07-1.61,.56-2.16,.49-.54,1.27-.88,2.33-1.03l1.24-.16c1.07-.14,1.91-.02,2.54,.38,.62,.4,1,1.06,1.12,1.98Zm2.79,2.11l.16,1.23-10.07,1.34-.16-1.24,1.8-.19,.38-.07,3.14-.42,.25-.03,2.09-.32,2.42-.32Z"/><path class="cls-6" d="M9.16,103.35l.04,1.24h-1.83s-.19,.06-.19,.06l-2.39,.08h-.44c-.61,.03-1.06,.2-1.34,.52-.28,.32-.41,.82-.39,1.49,.02,.54,.11,1.03,.28,1.47,.17,.44,.36,.84,.58,1.18l-1.07-.08c-.12-.19-.25-.42-.37-.68-.12-.27-.23-.57-.32-.91-.09-.34-.14-.72-.15-1.14-.02-.54,.03-1,.15-1.38,.12-.38,.3-.69,.53-.94,.24-.24,.53-.42,.87-.54,.35-.12,.73-.19,1.16-.2l4.86-.17Zm.29,3.82c.03,.74-.14,1.32-.48,1.73-.35,.41-.86,.63-1.53,.65h-.22c-.69,.03-1.22-.16-1.57-.58-.36-.42-.62-1.09-.78-2.02l-.42-2.37,.91-.1,.41,2.28c.1,.57,.26,.98,.46,1.22,.21,.24,.5,.35,.89,.34h.12c.4-.02,.69-.15,.9-.4,.2-.25,.29-.62,.28-1.11-.01-.43-.1-.8-.26-1.1-.16-.3-.37-.54-.63-.73-.26-.18-.54-.3-.85-.36l.84-.22v.24c.34,.06,.65,.18,.94,.37,.29,.19,.53,.46,.71,.8s.29,.8,.3,1.35Z"/><path class="cls-7" d="M9.16,100.2l-.05,1.25-7.51-.29,.05-1.22,2.21,.15,.1-.09,5.2,.2Zm-4.59-.12l-.97,.25v-.31c-.63-.19-1.12-.49-1.47-.9-.35-.41-.51-.95-.49-1.61,0-.16,.02-.31,.06-.44,.03-.13,.07-.25,.11-.35l1.21-.03c-.05,.13-.08,.27-.12,.42-.03,.16-.05,.33-.06,.52-.02,.56,.12,1.06,.41,1.49,.3,.43,.74,.75,1.33,.96Z"/><path class="cls-26" d="M2.26,93.28l-.1,1.19-2.1-.18-.05-1.26,2.26,.25Zm1.13-2.89l-.47,5.39-1-.09,.48-5.51,.99,.2Zm6.38,2.33c-.05,.58-.18,1.04-.38,1.37s-.49,.57-.86,.7c-.37,.13-.81,.17-1.34,.12l-4.72-.41,.11-1.23,4.58,.4c.49,.04,.86-.04,1.11-.24,.25-.2,.4-.57,.45-1.1,.03-.3,.02-.59-.02-.88-.04-.28-.11-.55-.22-.81l1.06,.21c.1,.25,.17,.54,.22,.87s.05,.66,.02,1.01Z"/><path class="cls-11" d="M10.19,88.14l-.2,1.23-7.42-1.19,.2-1.23,1.77,.34,.08-.04,5.57,.89Zm.8-4.96l-.2,1.23-4.61-.74c-.4-.06-.75-.06-1.06,0-.31,.06-.56,.2-.76,.42-.2,.22-.33,.54-.4,.97-.06,.39-.04,.74,.06,1.05,.1,.31,.26,.57,.49,.79,.22,.22,.49,.39,.8,.51l-.91,.08,.04-.27c-.32-.13-.6-.33-.85-.57-.24-.25-.42-.55-.53-.92-.11-.37-.13-.8-.05-1.3,.09-.59,.28-1.04,.56-1.37,.28-.33,.64-.54,1.09-.64,.44-.1,.97-.1,1.58,0l4.75,.76Z"/><path class="cls-34" d="M12.39,78.28c-.29,1.11-.78,1.87-1.46,2.29-.69,.42-1.54,.5-2.54,.24l-1.3-.34c-1.02-.27-1.74-.73-2.16-1.4-.42-.67-.5-1.5-.24-2.5,.18-.68,.45-1.21,.82-1.59,.37-.39,.81-.63,1.33-.74,.52-.11,1.1-.08,1.74,.09l.27,.07c.16,.04,.32,.09,.47,.14,.16,.05,.31,.11,.46,.17l-.29,1.11c-.24-.07-.46-.14-.67-.2-.21-.06-.41-.11-.59-.16-.44-.11-.83-.14-1.18-.08s-.63,.21-.87,.45c-.23,.24-.41,.57-.52,.99-.16,.63-.1,1.14,.18,1.55,.28,.41,.76,.7,1.43,.87l.69,.18,.15,.03,.69,.18c.3,.08,.59,.11,.85,.08,.27-.03,.51-.11,.74-.26,.23-.15,.42-.35,.59-.63,.17-.27,.31-.61,.41-1.02,.12-.47,.18-.93,.16-1.37-.02-.44-.09-.87-.21-1.28l1.01,.38c.12,.38,.18,.79,.2,1.25,.01,.46-.05,.95-.19,1.47Zm-2.68-3.32l-1.35,5.17-.91-.24,1.35-5.17,.91,.24Z"/><path class="cls-19" d="M13.85,72.69l-.4,1.18-7.12-2.41,.39-1.15,2.08,.77,.12-.06,4.93,1.67Zm-4.37-1.41l-1-.04,.08-.3c-.55-.36-.94-.79-1.15-1.28-.22-.5-.22-1.06-.01-1.69,.05-.16,.11-.29,.18-.41,.07-.12,.13-.22,.2-.3l1.17,.31c-.08,.11-.16,.23-.23,.37-.07,.14-.14,.3-.2,.48-.18,.53-.19,1.05-.03,1.55,.16,.5,.5,.93,1,1.3Z"/><path class="cls-41" d="M19.68,51.91c-.23,.38-.51,.6-.83,.66s-.68-.03-1.06-.26l-.11-.07c-.38-.23-.62-.5-.72-.81-.1-.31-.03-.66,.2-1.04,.23-.38,.51-.6,.83-.66,.32-.06,.67,.03,1.05,.26l.11,.07c.39,.23,.63,.51,.73,.82,.1,.31,.03,.66-.2,1.04Z"/></g></g></svg>