<?xml version="1.0" encoding="UTF-8"?><svg id="Layer_2" xmlns="http://www.w3.org/2000/svg" xmlns:xlink="http://www.w3.org/1999/xlink" viewBox="0 0 146.67 146.67"><defs><style>.cls-1{fill:url(#linear-gradient);}</style><linearGradient id="linear-gradient" x1="146.67" y1="73.33" x2="0" y2="73.33" gradientUnits="userSpaceOnUse"><stop offset="0" stop-color="#ff6f4c"/><stop offset="1" stop-color="#4254ff"/></linearGradient></defs><g id="Layer_1-2"><path class="cls-1" d="M73.33,146.67C32.9,146.67,0,113.77,0,73.33S32.9,0,73.33,0s73.33,32.9,73.33,73.33-32.9,73.33-73.33,73.33ZM73.33,1C33.45,1,1,33.45,1,73.33s32.45,72.33,72.33,72.33,72.33-32.45,72.33-72.33S113.22,1,73.33,1Zm0,139.33c-36.94,0-67-30.06-67-67S36.39,6.33,73.33,6.33s67,30.06,67,67-30.06,67-67,67Zm0-133C36.94,7.33,7.33,36.94,7.33,73.33s29.61,66,66,66,66-29.61,66-66S109.73,7.33,73.33,7.33Zm-26.98,95.32l-.07-.42-8.95-54.56h.59c7.96,0,16.93,6.61,17.58,16.45,.04,.66,.77,13.44,1.06,18.97,2.14-5.59,7.38-19.17,7.45-19.34,3.92-10.54,10.85-16.11,20.03-16.11h.44l.06,.44c.16,1.26,3.49,26.94,4.51,34.98,1.71-5.47,5.91-18.61,6.12-19.28,3.93-10.56,11.04-16.14,20.58-16.14h.74l-16.08,39.7c-4.28,10.16-11.4,15.3-21.16,15.3h-.43l-.06-.43c-.17-1.17-3.6-25.11-4.6-32.22-1.75,4.56-6.13,15.94-6.36,16.53-2.88,7.33-8.85,16.08-21.02,16.12h-.43Zm28.32-36.9l.21,2.2c.06,.59,3.13,22.05,4.8,33.7,9.11-.15,15.77-5.09,19.81-14.68l15.51-38.31c-8.83,.28-15.18,5.47-18.89,15.45-.06,.18-6.32,19.81-6.79,21.47l-.7,2.48-.28-2.56c-.17-1.56-4.21-32.75-4.74-36.85-8.62,.17-14.9,5.37-18.66,15.46-.08,.2-7.69,19.92-8.3,21.58l-.91,2.45-.06-2.62c-.04-1.55-1.16-21.14-1.17-21.34-.6-9.03-8.63-15.18-15.99-15.5l8.68,52.96c11.32-.24,16.94-8.52,19.66-15.47,.07-.17,6.76-17.55,7.05-18.35l.76-2.07Z"/></g></svg>